<svg width="65" height="63" viewBox="0 0 65 63" fill="none" xmlns="http://www.w3.org/2000/svg">
<path d="M45.0379 43.7433C40.4676 53.0871 32.4645 59.3738 21.8766 61.4406C20.2532 61.8383 18.5866 62.0328 16.9152 62.0195C10.8215 62.0195 5.23555 59.4804 2.52384 55.3214C-1.11718 49.7812 -2.35624 38.0355 9.64845 29.3468C9.8922 30.6722 10.3899 32.4902 10.7199 33.5667C8.36334 35.3175 6.43438 37.5798 5.07813 40.1835C2.84376 44.571 3.09259 48.9535 5.73829 53.0058C7.56641 55.7378 10.4609 57.3984 14.1832 57.9062C18.8324 58.4947 23.549 57.6064 27.6656 55.3671C34.1199 51.9749 38.4211 47.9226 41.2344 42.3824C40.4389 41.5603 39.968 40.4779 39.909 39.3355C39.8665 38.1096 40.312 36.9168 41.1479 36.0191C41.9838 35.1213 43.1417 34.5918 44.3676 34.5468H44.5402C45.7326 34.5408 46.8816 34.9935 47.7495 35.811C48.6174 36.6286 49.1378 37.7485 49.2031 38.939C49.2683 40.1296 48.8733 41.2996 48.1 42.2071C47.3266 43.1146 46.2339 43.6901 45.0481 43.8144L45.0379 43.7433ZM59.5969 33.4855C65.7973 40.5136 65.9649 48.7859 63.568 53.5847C61.3336 57.9671 55.443 62.3546 47.5211 62.3546C43.823 62.2792 40.1851 61.4044 36.857 59.7902C38.0199 58.9624 39.6703 57.6371 40.5793 56.8093C43.1457 57.9211 45.9076 58.5115 48.7043 58.546C53.8332 58.546 57.718 56.1492 60.0336 51.7667C61.5215 48.8722 61.6078 45.48 60.2012 42.0066C58.4752 37.6363 55.4038 33.9282 51.4313 31.4187C46.2194 27.9054 40.0753 26.0324 33.7899 26.041H32.302C31.955 26.8424 31.3906 27.5307 30.6726 28.0279C29.9546 28.5251 29.1117 28.8114 28.2395 28.8542H28.082C26.8756 28.8394 25.7224 28.3548 24.8674 27.5034C24.0125 26.652 23.5232 25.5009 23.5033 24.2945C23.4835 23.0881 23.9347 21.9214 24.7612 21.0424C25.5877 20.1634 26.7244 19.6411 27.9297 19.5867H28.0973C28.9372 19.5873 29.7608 19.8194 30.4774 20.2574C31.1941 20.6955 31.7762 21.3226 32.1598 22.0699H33.4852C44.0477 22.0699 53.3203 26.1222 59.5969 33.4855ZM17.5754 45.1652C17.4884 44.3219 17.6927 43.4743 18.1543 42.7632C13.5231 34.7398 11.0449 24.5683 14.8484 13.9804C17.5754 6.02299 24.441 0.645264 31.8856 0.645264C39.8277 0.645264 48.1 7.59721 49.0902 20.9933C47.8512 20.582 46.0434 19.9777 44.9566 19.7542C44.6875 15.3718 40.9856 4.45385 32.2156 4.61635C29.0723 4.70268 24.441 6.19057 22.0594 9.2476C19.1134 12.8968 17.3996 17.3858 17.1641 22.0699C16.6058 28.4926 18.1127 34.9257 21.4652 40.4324C21.6503 40.3647 21.8476 40.3371 22.0441 40.3511H22.2066C23.4349 40.3289 24.6217 40.7955 25.506 41.6483C26.3902 42.5011 26.8995 43.6703 26.9217 44.8986C26.9439 46.1269 26.4773 47.3137 25.6245 48.1979C24.7717 49.0821 23.6025 49.5914 22.3742 49.6136H22.2066C21.0084 49.6094 19.8579 49.1428 18.9952 48.3113C18.1324 47.4797 17.6238 46.3473 17.5754 45.1499V45.1652Z" fill="url(#paint0_linear_2_19)"/>
<defs>
<linearGradient id="paint0_linear_2_19" x1="72.0104" y1="-5.52567" x2="22.0613" y2="61.2527" gradientUnits="userSpaceOnUse">
<stop stop-color="#29FF81"/>
<stop offset="1" stop-color="#9D73FF"/>
</linearGradient>
</defs>
</svg>
