<svg width="65" height="49" viewBox="0 0 65 49" fill="none" xmlns="http://www.w3.org/2000/svg">
<path fill-rule="evenodd" clip-rule="evenodd" d="M-1 20.4324C-1 20.7992 -0.891186 21.0414 -0.830208 21.2767C-0.432802 22.8072 0.421412 24.1206 1.4349 25.3187C2.8784 27.0261 4.64622 28.4006 6.45716 29.6932C8.02786 30.814 9.63063 31.9099 11.2076 33.0224C11.4784 33.2134 11.7344 33.433 12.0282 33.6673C11.7754 33.803 11.5651 33.9225 11.3464 34.0326C9.26529 35.0804 7.26301 36.2551 5.41738 37.6781C4.30506 38.5359 3.22954 39.4475 2.46995 40.6389C1.24777 42.555 0.815139 44.5964 1.72613 46.776C1.99212 47.4126 2.39793 47.9626 2.97039 48.3691C3.15595 48.5006 3.36411 48.6311 3.58122 48.6822C4.13738 48.8121 4.70405 48.8972 5.26704 49L6.8614 48.999C8.6245 48.8429 10.2294 48.2434 11.6797 47.2498C13.9464 45.6969 15.4735 43.6148 16.13 40.9426C16.6073 39.0004 16.6268 37.056 16.0643 35.1227C16.0105 34.9436 15.9484 34.767 15.8782 34.5936C15.8099 34.4198 15.7295 34.2507 15.6348 34.0342L19.2493 31.9709L19.3035 32.0168C19.2378 32.2303 19.1679 32.4432 19.1085 32.6587C18.679 34.2158 18.3936 35.8 18.4961 37.4161C18.6054 39.1381 19.0895 40.75 20.1051 42.1887C20.9262 43.3523 22.8828 43.3956 23.7554 42.2278C24.065 41.813 24.3652 41.3793 24.5907 40.9165C25.18 39.7085 25.7256 38.4791 26.2886 37.258L26.3869 37.0347C26.3464 37.6128 26.2991 38.1206 26.2776 38.6288C26.2439 39.4225 26.2907 40.2115 26.564 40.9666C26.798 41.6126 27.1959 42.0953 27.9413 42.1803C28.4512 42.2382 28.8575 42.0066 29.2323 41.7128C29.813 41.2573 30.2943 40.6893 30.6469 40.0435C31.6462 38.2218 32.6723 36.4111 33.5781 34.5435C34.5579 32.5235 35.4148 30.4446 36.3247 28.3902L36.475 28.0259C36.69 28.8645 36.8398 29.6859 37.1158 30.4634C37.4365 31.3656 37.8334 32.2464 38.2655 33.1027C38.4699 33.5071 38.4463 33.7696 38.163 34.1088C36.977 35.5282 35.8116 36.9647 34.6452 38.3997C34.3871 38.7165 34.13 39.039 33.915 39.3849C33.7846 39.6034 33.6988 39.8453 33.6627 40.0967C33.6265 40.3282 33.682 40.5645 33.8175 40.7563C33.9531 40.948 34.1581 41.0802 34.3897 41.1252C34.8571 41.2251 35.3363 41.259 35.8132 41.2259C37.4412 41.1069 38.9194 40.5397 40.2262 39.5785C41.9194 38.3335 42.4629 36.6344 42.0529 34.6207C41.942 34.0744 41.7459 33.5432 41.5551 33.0166C41.4694 32.7792 41.4636 32.6127 41.6198 32.3915C42.9734 30.4728 44.1298 28.4371 45.2054 26.3545C45.2479 26.2726 45.2916 26.1907 45.3662 26.103C45.7147 27.9033 46.2394 29.6384 47.1793 31.2127C46.6998 31.6714 46.2252 32.0873 45.7957 32.5454C44.85 33.5546 44.03 34.6505 43.6021 35.9868C43.4181 36.5629 43.2767 37.1484 43.3587 37.7636C43.4859 38.7191 44.2744 39.3401 45.2211 39.1225C47.2471 38.657 48.996 37.7094 50.2739 36.0307C51.1339 34.9004 51.2122 33.6397 50.8521 32.319C50.7533 31.9599 50.6361 31.6067 50.5099 31.195C51.0098 31.041 51.4971 30.8563 52.0012 30.742C54.6185 30.1492 57.2075 30.2526 59.7296 31.1908C61.202 31.7387 62.3916 32.6555 63.0971 34.0978C63.9586 35.8611 63.4824 37.534 61.8081 38.6486C61.652 38.7525 61.4733 38.8344 61.344 38.9643C61.3025 39.012 61.2716 39.0677 61.253 39.1279C61.2345 39.1881 61.2287 39.2515 61.2362 39.314C61.2472 39.3781 61.4181 39.4585 61.5164 39.4575C62.0668 39.4533 62.5131 39.1668 62.9415 38.8725C64.0149 38.1352 64.7981 37.1432 64.9669 35.8371L65 35.739L64.9595 34.8884C64.9432 34.8394 64.9716 34.7908 64.9679 34.7538C64.7398 32.8517 63.7163 31.3766 62.2276 30.2202C60.5034 28.8817 58.4675 28.3307 56.3144 28.2435C54.5681 28.1689 52.824 28.4354 51.1812 29.0278C50.7097 29.1974 50.2423 29.3983 49.7682 29.5877C49.7046 29.4735 49.6362 29.3639 49.58 29.2507C49.0932 28.2613 48.5034 27.3157 48.373 26.1813C48.2805 25.3756 48.167 24.571 48.3599 23.7741C48.5455 23.0076 48.7873 22.2541 49.0149 21.498C49.1321 21.1087 49.0496 20.8906 48.6753 20.7152C48.5449 20.6507 48.4057 20.6053 48.2621 20.5806C47.3422 20.4481 46.4349 20.5237 45.5439 20.781C45.2285 20.8723 44.9993 21.0476 44.9294 21.3941C44.8894 21.5929 44.808 21.7834 44.7512 21.9796C44.5183 22.7952 44.3532 23.6265 43.9769 24.4035C43.0338 26.3525 41.9572 28.2279 40.8554 30.0897C40.7361 30.2906 40.6105 30.4879 40.4601 30.7316C40.0732 29.928 39.6606 29.2068 39.5355 28.3615C39.3941 27.4055 39.2826 26.4511 39.5223 25.5024C39.7005 24.7948 39.9334 24.1003 40.1479 23.4021C40.2493 23.0702 40.2026 22.8959 39.8998 22.7211C39.7468 22.6329 39.5739 22.5547 39.4014 22.5291C38.4582 22.3865 37.4944 22.4647 36.587 22.7576C36.3016 22.8495 36.1517 23.0326 36.0645 23.3249C35.808 24.1869 35.5893 25.0698 35.2292 25.8896C33.771 29.2084 32.2707 32.5099 30.772 35.811C30.4593 36.5003 30.0929 37.1656 29.7401 37.8367C29.6508 38.0068 29.5204 38.1566 29.409 38.3162C29.3196 38.2114 29.2849 38.1393 29.2854 38.0673C29.2881 37.6431 29.2371 37.2063 29.3186 36.7962C29.5688 35.5557 29.8453 34.3206 30.1481 33.0918C30.3951 32.0763 30.6827 31.0702 30.9565 30.0616C31.0485 29.7239 31.0501 29.4082 30.8057 29.1244C30.3951 28.649 29.5372 28.5446 29.0284 28.9109L28.8034 29.0372L28.847 28.6772C28.9543 27.9054 28.9758 27.1362 28.7624 26.3759C28.4964 25.4283 27.8151 24.883 26.8248 24.9133C26.3632 24.9274 25.8786 25.0056 25.4512 25.1726C23.6539 25.8719 22.2719 27.1101 21.0955 28.5999C20.9864 28.7383 20.8513 28.8542 20.6976 28.9412C19.1768 29.7782 17.6513 30.6048 16.1263 31.4345L14.4289 32.3576C13.9737 31.9266 13.56 31.4793 13.0906 31.1C11.6571 29.9395 10.2005 28.8076 8.75697 27.6601C7.47748 26.6431 6.23795 25.5838 5.28964 24.237C4.5842 23.2351 4.12949 22.1388 4.08586 20.9C4.03066 19.3215 4.48169 17.8791 5.29122 16.5365C6.32679 14.8187 7.73927 13.44 9.2921 12.1913C10.9348 10.8711 12.7116 9.7502 14.553 8.7269C17.1293 7.2956 19.7792 6.0286 22.6205 5.1921C25.5337 4.3342 28.4896 3.8432 31.5385 4.1855C32.737 4.3202 33.9008 4.5925 34.9695 5.1744C35.788 5.6195 36.4593 6.2024 36.7715 7.1135C37.0795 8.0099 37.0701 8.9184 36.8567 9.829C36.423 11.6731 35.4058 13.1932 34.1258 14.5515C32.0263 16.7781 29.4652 18.294 26.5819 19.2954C24.9241 19.8719 23.1992 20.2371 21.4487 20.3823C20.0142 20.5018 18.6096 20.3755 17.2513 19.8803C16.3518 19.5521 15.5686 19.0501 14.9388 18.3216C14.8264 18.1912 14.6823 18.0498 14.4726 18.1719C14.267 18.2919 14.2308 18.486 14.2996 18.6827C14.4148 19.0094 14.5209 19.3496 14.7002 19.6418C15.1507 20.375 15.8078 20.9067 16.5311 21.3628C17.9204 22.24 19.4733 22.5348 21.0834 22.6032C23.5267 22.7081 25.9106 22.3459 28.2609 21.6952C31.6163 20.7664 34.5337 19.1258 36.8735 16.5375C38.8216 14.3824 40.2131 11.9502 40.5111 9.0134C40.6567 7.58 40.5017 6.1757 39.8257 4.8681C39.0923 3.4513 37.9264 2.3978 36.5323 1.6719C34.5022 0.61523 32.3112 0 30.0498 0H27.7841C25.0454 0 22.3976 0.77908 19.8239 1.7084C17.8758 2.4124 15.9655 3.2431 14.1109 4.1626C10.0722 6.1658 6.31102 8.5813 3.22166 11.9027C1.6825 13.5574 0.379359 15.3833 -0.370247 17.5332C-0.596493 18.175 -0.791393 18.8274 -0.954267 19.4879L-1 20.4324ZM13.6799 38.2802C13.5048 40.607 12.4424 42.4934 10.7062 44.0213C9.72946 44.8802 8.60925 45.4918 7.30454 45.7068C6.83144 45.7845 6.34729 45.8033 5.88838 45.6087C5.23392 45.3311 5.08726 44.7545 5.07465 44.1403C5.0552 43.1613 5.40056 42.2763 5.87419 41.4341C6.49238 40.3362 7.39863 39.4992 8.36639 38.7175C9.89084 37.4855 11.5446 36.4429 13.2383 35.4588L13.366 35.4066C13.6278 36.3667 13.7524 37.3149 13.6799 38.2802ZM26.9047 28.1679C26.7811 28.9109 26.6266 29.6545 26.4079 30.3747C25.652 32.8674 24.6811 35.2829 23.6313 37.6661C23.4374 38.107 23.1551 38.5093 22.9096 38.9273C22.8678 38.9916 22.8178 39.0501 22.7608 39.1016C22.457 39.3995 22.1689 39.3839 22.0154 38.9941C21.8367 38.5411 21.7268 38.0564 21.6322 37.5768C21.5686 37.2549 21.5838 36.9167 21.5639 36.5869C21.5844 34.2419 22.3051 32.1108 23.5278 30.1268C24.0319 29.3086 24.5807 28.529 25.4191 28.0113C25.68 27.8503 25.9622 27.7263 26.2576 27.6429C26.7044 27.5182 26.9788 27.7233 26.9047 28.1679ZM35.9273 39.579L39.1701 35.8204C39.3052 37.2162 36.915 40.0028 35.9273 39.579ZM46.2846 37.0498C46.0554 37.1802 45.8057 37.2742 45.5707 37.3947C45.3557 37.5053 45.2847 37.3937 45.2784 37.21C45.2753 37.0828 45.2917 36.9559 45.3273 36.8338C45.7652 35.3006 46.5711 33.9919 47.7701 32.9274L47.8542 32.8846C48.4246 34.4683 47.7654 36.2076 46.2846 37.0498Z" fill="url(#paint0_linear_2_24)"/>
<defs>
<linearGradient id="paint0_linear_2_24" x1="72.1186" y1="-4.9" x2="36.0806" y2="56.7121" gradientUnits="userSpaceOnUse">
<stop stop-color="#29FF81"/>
<stop offset="1" stop-color="#9D73FF"/>
</linearGradient>
</defs>
</svg>
