<svg width="51" height="64" viewBox="0 0 51 64" fill="none" xmlns="http://www.w3.org/2000/svg">
<path d="M47.5116 0.0216578L44.0006 0.240528L44.2743 7.54135C44.2886 7.94506 43.8229 8.18071 43.5055 7.93033L41.1543 6.07682L38.369 8.19031C38.2973 8.24481 38.2115 8.27771 38.1218 8.28521C38.032 8.29281 37.942 8.27461 37.8622 8.23281C37.7824 8.19111 37.7162 8.12746 37.6712 8.04943C37.6262 7.9714 37.6044 7.88218 37.6083 7.79221L37.9216 0.620368L3.0918 2.79838C2.26324 2.85 1.48773 3.22347 0.930787 3.83904C0.373847 4.45462 0.0796067 5.26353 0.110907 6.09307L2.07106 58.3155C2.10099 59.1134 2.42989 59.8708 2.99246 60.4375C3.555 61.0041 4.3101 61.3384 5.1078 61.374L47.567 63.2804C47.9962 63.2993 48.4248 63.2313 48.827 63.0803C49.2293 62.9293 49.5968 62.6985 49.9075 62.4018C50.2183 62.1052 50.4657 61.7485 50.6347 61.3534C50.8037 60.9584 50.8907 60.5332 50.8906 60.1035V3.1965C50.8909 2.76198 50.802 2.33203 50.6295 1.93322C50.457 1.53441 50.2045 1.17522 49.8877 0.877828C49.5712 0.580278 49.1971 0.350778 48.7884 0.203518C48.3797 0.0562579 47.9452 -0.00563217 47.5116 0.0216578ZM26.4577 10.7807C34.7391 10.7807 39.2617 15.2103 39.2617 23.638C38.1425 24.5079 29.8063 25.1005 29.8063 23.8629C29.982 19.1403 27.8679 18.9336 26.6934 18.9336C25.5772 18.9336 23.6978 19.2698 23.6978 21.7997C23.6978 28.0397 39.7904 27.703 39.7904 40.2963C39.7904 47.3802 34.0343 51.2929 26.6934 51.2929C19.1168 51.2929 12.4965 48.2278 13.244 37.6008C13.5375 36.3531 23.1691 36.6497 23.1691 37.6008C23.0524 41.9857 24.0502 43.2756 26.575 43.2756C28.5134 43.2756 29.3949 42.2077 29.3949 40.4085C29.3949 33.9994 13.5375 33.7749 13.5375 22.0252C13.5375 15.2789 18.1773 10.7807 26.4577 10.7807Z" fill="url(#paint0_linear_2_37)"/>
<defs>
<linearGradient id="paint0_linear_2_37" x1="56.3679" y1="-6.31143" x2="2.99213" y2="48.0668" gradientUnits="userSpaceOnUse">
<stop stop-color="#29FF81"/>
<stop offset="1" stop-color="#9D73FF"/>
</linearGradient>
</defs>
</svg>
