<svg width="79" height="79" viewBox="0 0 79 79" fill="none" xmlns="http://www.w3.org/2000/svg">
<path d="M64.8885 0L64.3229 2.94879C63.448 8.53717 63.7648 10.136 66.163 12.21L68.4783 14.1255L66.0801 24.8196C64.6472 31.1999 62.89 36.5469 61.7738 38.3041C60.816 39.82 59.6998 42.0523 59.4585 43.2515C59.0588 44.6844 57.7013 46.1248 55.6273 47.3994C53.7947 48.4401 50.1973 51.2305 47.6483 53.4704C45.612 55.303 44.2092 56.4267 43.4475 56.9094L40.9588 58.8778C40.1594 60.1599 39.7069 61.1931 39.5334 61.9774C39.36 62.7844 39.458 63.3198 39.7144 63.712C39.9633 64.0891 40.3932 64.3531 40.9814 64.519C41.6778 64.6822 42.3946 64.7406 43.1082 64.6924C44.7226 64.5821 46.3205 64.2989 47.8745 63.8477C48.4024 63.7045 48.8172 63.5687 49.1792 63.448C49.7373 62.7618 51.0269 61.4646 53.312 59.2096C59.3755 53.2291 61.6908 49.956 59.3001 50.8384C58.4177 51.1551 58.8175 50.3557 60.3333 48.7569C63.531 45.6422 65.3636 40.9362 69.1948 26.1771C72.2265 14.5252 72.2265 14.3593 74.4589 14.3593C75.5072 14.3593 78.471 14.5403 78.471 14.5403V0H71.6685H64.8885ZM38.0251 24.9252C35.8229 24.9101 31.0868 28.2662 16.9084 39.8426C16.2975 41.2982 16.2447 42.3012 16.5238 42.9498C16.7048 43.3947 17.0366 43.704 17.4967 43.9302C17.9492 44.1565 18.5374 44.2922 19.186 44.345C20.4756 44.4581 21.999 44.2545 23.2283 44.0132L24.0579 43.8246C24.3419 43.4438 24.7147 43.1383 25.1439 42.9347C26.0188 42.452 29.6915 39.1035 33.3643 35.5137C39.8275 28.9675 41.3434 26.0112 38.7114 25.0534C38.4955 24.9675 38.2575 24.924 38.0251 24.9252ZM54.5866 29.4728C52.6484 29.5256 49.1566 31.773 43.176 36.5469C40.1745 38.9829 38.274 40.2951 37.2558 40.5666L33.304 43.6889C31.8183 46.4039 31.5996 48.0857 31.9918 49.0133C32.0899 49.2421 32.2324 49.4492 32.411 49.6227C32.5897 49.7961 32.8009 49.9325 33.0325 50.0239C33.6087 50.2514 34.223 50.3666 34.8425 50.3632C36.3228 50.3475 37.7941 50.1318 39.2167 49.7222C39.958 49.5233 40.6903 49.2918 41.4113 49.0284L41.63 48.9379L42.0297 48.7267C42.7839 47.7538 44.5185 45.9212 46.6905 43.8095C53.5534 37.188 57.0603 32.482 56.3438 30.7248C56.0195 29.8725 55.4614 29.4427 54.5866 29.4728ZM36.3056 37.6178C35.7475 37.6782 34.4956 38.6435 32.2406 40.6194C28.9826 43.5003 25.4305 45.1595 24.2012 44.4204C23.9155 44.485 23.6289 44.5453 23.3415 44.6014C22.0895 44.8503 20.5284 45.0539 19.1332 44.9408C18.4758 44.901 17.8315 44.7399 17.2327 44.4657C16.6679 44.2075 16.2172 43.7514 15.9657 43.1836C15.6867 42.5048 15.6867 41.6602 16.0034 40.5817L11.1013 44.609L0.00754166 53.7872V68.6669L36.3584 40.0312C36.3513 39.7176 36.392 39.4048 36.479 39.1035C36.7581 38.093 36.743 37.5801 36.3056 37.6254V37.6178ZM51.947 42.437C51.3965 42.437 50.4764 43.2138 49.0057 44.7749C47.0072 46.9092 43.8623 48.9756 42.1956 49.3979L41.9392 49.5337C41.6656 49.6467 41.3889 49.7523 41.1096 49.8504C40.6571 50.0012 40.0689 50.1822 39.3901 50.3632C38.0326 50.7328 36.3433 51.0722 34.835 51.0345C34.1239 51.0336 33.4196 50.8953 32.761 50.6272C32.1402 50.3713 31.6428 49.8847 31.3733 49.2697C30.9359 48.2214 31.1094 46.7508 32.0672 44.6618L0 69.9188V79.0065H14.0878L43.9679 55.5368C44.7447 54.6771 45.9137 53.5006 47.4899 52.03C51.7132 48.1158 52.671 46.7659 52.671 44.7673C52.671 43.2138 52.4975 42.4294 51.947 42.4294V42.437ZM59.0588 57.1432L56.5022 59.6923C55.0693 61.0498 52.5126 62.724 50.763 63.4405L50.416 63.5913L50.3934 63.629L50.318 63.7045C50.2501 63.7572 50.22 63.7648 50.1672 63.7874C49.4687 64.0518 48.7591 64.2858 48.0404 64.4888C46.4425 64.9539 44.7989 65.2447 43.1383 65.3561C42.3532 65.4064 41.565 65.3378 40.8004 65.1525C40.1369 65.0064 39.5511 64.6194 39.1563 64.0665C38.7943 63.5084 38.6887 62.7618 38.8924 61.8417C39.0543 61.1866 39.2949 60.5535 39.6088 59.9562L15.4981 79.0065H47.5653L51.3965 74.6173C56.6605 68.4783 59.0588 64.0891 59.0588 60.3333V57.1432Z" fill="url(#paint0_linear_281_8)"/>
<defs>
<linearGradient id="paint0_linear_281_8" x1="86.9348" y1="-7.90065" x2="22.0194" y2="73.9366" gradientUnits="userSpaceOnUse">
<stop stop-color="#29FF81"/>
<stop offset="1" stop-color="#9D73FF"/>
</linearGradient>
</defs>
</svg>
