<svg width="95" height="95" viewBox="0 0 95 95" fill="none" xmlns="http://www.w3.org/2000/svg">
<path d="M47.5 19.0079C36.4384 19.0079 29.0007 23.8351 25.1829 33.4915C24.7871 34.491 26.0082 35.3123 26.7979 34.582C30.8255 30.8572 35.3519 29.6242 40.375 30.879C43.989 31.7815 46.5718 34.4039 49.4317 37.3053C54.0867 42.0296 59.4759 47.5 71.25 47.5C82.3116 47.5 89.7512 42.6709 93.5671 33.0145C93.9629 32.015 92.7418 31.1937 91.9521 31.924C87.9245 35.6488 83.3981 36.8838 78.375 35.629C74.763 34.7265 72.1802 32.1041 69.3203 29.2026C64.6633 24.4764 59.2721 19.0079 47.5 19.0079ZM23.75 47.5C12.6884 47.5 5.24874 52.3292 1.43291 61.9855C1.03707 62.985 2.25822 63.8064 3.04791 63.0761C7.07551 59.3513 11.6019 58.1163 16.625 59.373C20.237 60.2775 22.8198 62.8979 25.6797 65.7974C30.3367 70.5237 35.7279 75.9941 47.5 75.9941C58.5616 75.9941 66.0012 71.1649 69.8171 61.5086C70.2129 60.5091 68.9918 59.6877 68.2021 60.418C64.1745 64.1428 59.6481 65.3778 54.625 64.1211C51.011 63.2186 48.4282 60.5962 45.5683 57.6967C40.9133 52.9704 35.5241 47.5 23.75 47.5Z" fill="url(#paint0_linear_281_3)"/>
<defs>
<linearGradient id="paint0_linear_281_3" x1="103.598" y1="13.3093" x2="65.7671" y2="91.0738" gradientUnits="userSpaceOnUse">
<stop stop-color="#29FF81"/>
<stop offset="1" stop-color="#9D73FF"/>
</linearGradient>
</defs>
</svg>
